<svg xmlns="http://www.w3.org/2000/svg" width="27.199" height="27.199" viewBox="0 0 27.199 27.199">
  <g id="分类" transform="translate(0 0)">
    <path id="路径_66" data-name="路径 66" d="M8.937,8.937,0,8.937A8.937,8.937,0,1,0,8.937,0,8.937,8.937,0,0,0,0,8.937Z" transform="translate(0 0)" fill="#8cf6fb"/>
    <path id="路径_67" data-name="路径 67" d="M9.131,12.434H3.3A3.3,3.3,0,0,1,0,9.131V3.3A3.3,3.3,0,0,1,3.3,0H9.131a3.3,3.3,0,0,1,3.3,3.3V9.131a3.3,3.3,0,0,1-3.3,3.3ZM3.3,1.943A1.377,1.377,0,0,0,1.943,3.3V9.131a1.377,1.377,0,0,0,1.36,1.36H9.131a1.377,1.377,0,0,0,1.36-1.36V3.3a1.377,1.377,0,0,0-1.36-1.36H3.3ZM23.9,12.434H18.068a3.3,3.3,0,0,1-3.3-3.3V3.3a3.3,3.3,0,0,1,3.3-3.3H23.9a3.3,3.3,0,0,1,3.3,3.3V9.131a3.3,3.3,0,0,1-3.3,3.3ZM18.068,1.943a1.377,1.377,0,0,0-1.36,1.36V9.131a1.377,1.377,0,0,0,1.36,1.36H23.9a1.377,1.377,0,0,0,1.36-1.36V3.3a1.377,1.377,0,0,0-1.36-1.36H18.068ZM9.131,27.2H3.3A3.3,3.3,0,0,1,0,23.9V18.068a3.3,3.3,0,0,1,3.3-3.3H9.131a3.3,3.3,0,0,1,3.3,3.3V23.9a3.3,3.3,0,0,1-3.3,3.3ZM3.3,16.708a1.377,1.377,0,0,0-1.36,1.36V23.9a1.377,1.377,0,0,0,1.36,1.36H9.131a1.377,1.377,0,0,0,1.36-1.36V18.068a1.377,1.377,0,0,0-1.36-1.36H3.3Z" transform="translate(0 0)" fill="#3c2dcb"/>
    <path id="路径_68" data-name="路径 68" d="M562.1,568.32a6.217,6.217,0,1,1,6.217-6.217A6.235,6.235,0,0,1,562.1,568.32Zm0-10.491a4.274,4.274,0,1,0,4.274,4.274A4.262,4.262,0,0,0,562.1,557.829Z" transform="translate(-541.121 -541.121)" fill="#d098ff"/>
  </g>
</svg>
